<svg width="1430" height="435" viewBox="0 0 1430 435" fill="none" xmlns="http://www.w3.org/2000/svg">
<g style="mix-blend-mode:hard-light" filter="url(#filter0_f)">
<path opacity="0.111111" d="M15.4584 76.4924C91.8138 74.2101 142.276 26.8859 296.449 60.7547C450.623 94.6235 518.825 156.433 674.168 169.068C829.511 181.703 891.931 226.457 1020.79 280.518C1214.26 361.682 1562.11 378.305 1562.11 378.305" stroke="#226341" stroke-width="1.11111"/>
<path opacity="0.222222" d="M-2.53506 101.378C74.3488 96.9663 124.69 45.2256 280.325 77.3224C435.961 109.419 505.29 173.52 661.886 182.958C818.481 192.397 881.811 238.472 1012.16 292.743C1207.85 374.223 1558.39 382.921 1558.39 382.921" stroke="#226341" stroke-width="1.22222"/>
<path opacity="0.333333" d="M-19.9594 126.666C57.4016 120.107 107.483 63.9402 264.565 94.2239C421.647 124.508 492.204 190.879 649.988 197.08C807.771 203.282 872.077 250.66 1003.96 305.106C1201.95 386.847 1555 387.531 1555 387.531" stroke="#226341" stroke-width="1.33333"/>
<path opacity="0.444444" d="M-36.8043 152.347C40.9823 143.621 90.6644 83.0238 249.177 111.454C407.69 139.883 479.575 208.5 638.481 211.427C797.387 214.353 862.732 263.013 996.189 317.595C1196.55 399.542 1551.94 392.128 1551.94 392.128" stroke="#226341" stroke-width="1.44444"/>
<path opacity="0.555556" d="M-53.0601 178.409C25.0998 167.501 74.2432 102.47 234.169 129.005C394.095 155.539 467.408 226.375 627.37 225.989C787.332 225.603 853.782 275.522 988.862 330.202C1191.66 412.294 1549.22 396.701 1549.22 396.701" stroke="#226341" stroke-width="1.55556"/>
<path opacity="0.666667" d="M-68.7169 204.841C9.76369 191.735 58.2286 122.272 219.55 146.871C380.871 171.47 455.712 244.494 616.661 240.76C777.611 237.026 845.229 288.18 981.976 342.916C1187.28 425.093 1546.82 401.244 1546.82 401.244" stroke="#226341" stroke-width="1.66667"/>
<path opacity="0.777778" d="M-83.7654 231.631C-5.01724 216.313 42.6293 142.423 205.327 165.045C368.024 187.667 444.49 262.847 606.36 255.731C768.229 248.614 837.079 300.977 975.535 355.727C1183.41 437.926 1544.75 405.747 1544.75 405.747" stroke="#226341" stroke-width="1.77778"/>
<path opacity="0.888889" d="M-98.1961 258.768C-19.2338 241.225 27.4544 162.917 191.508 183.521C355.561 204.125 433.751 281.426 596.471 270.894C759.191 260.362 829.335 313.904 969.542 368.625C1180.04 450.78 1543.01 410.202 1543.01 410.202" stroke="#226341" stroke-width="1.88889"/>
<path d="M-112 286.24C-32.8777 266.459 12.7125 183.745 178.101 202.291C343.489 220.837 423.5 300.219 587 286.24C750.5 272.261 822 326.954 964 381.6C1177.19 463.643 1541.6 414.6 1541.6 414.6" stroke="#226341" stroke-width="2"/>
</g>
<defs>
<filter id="filter0_f" x="-116.243" y="16.0349" width="1701.97" height="418.107" filterUnits="userSpaceOnUse" color-interpolation-filters="sRGB">
<feFlood flood-opacity="0" result="BackgroundImageFix"/>
<feBlend mode="normal" in="SourceGraphic" in2="BackgroundImageFix" result="shape"/>
<feGaussianBlur stdDeviation="2" result="effect1_foregroundBlur"/>
</filter>
</defs>
</svg>
