<svg width="86" height="85" viewBox="0 0 86 85" fill="none" xmlns="http://www.w3.org/2000/svg">
<path d="M13.608 22.08V24H2.04V6.96H13.392V8.88H4.2V14.4H12.192V16.2H4.2V22.08H13.608ZM17.1713 11.472L20.4833 16.08L20.6753 16.464L20.8913 16.08L24.1793 11.472H26.5312L21.8993 17.76L26.5553 24H24.2033L20.8913 19.416L20.6753 19.056L20.4833 19.416L17.1713 24H14.8193L19.4753 17.76L14.8433 11.472H17.1713ZM35.2839 24.24C34.2599 24.24 33.3479 23.984 32.5479 23.472C31.7479 22.96 31.1159 22.312 30.6519 21.528V29.112H28.5399V11.472H30.4119V13.824C30.9079 13.056 31.5559 12.44 32.3559 11.976C33.1559 11.496 34.0279 11.256 34.9719 11.256C35.8359 11.256 36.6279 11.432 37.3479 11.784C38.0679 12.136 38.6919 12.616 39.2199 13.224C39.7479 13.832 40.1559 14.528 40.4439 15.312C40.7479 16.08 40.8999 16.888 40.8999 17.736C40.8999 18.92 40.6599 20.008 40.1799 21C39.7159 21.992 39.0599 22.784 38.2119 23.376C37.3639 23.952 36.3879 24.24 35.2839 24.24ZM34.6359 22.416C35.4679 22.416 36.1879 22.192 36.7959 21.744C37.4039 21.296 37.8759 20.712 38.2119 19.992C38.5639 19.272 38.7399 18.52 38.7399 17.736C38.7399 16.888 38.5479 16.112 38.1639 15.408C37.7959 14.704 37.2839 14.144 36.6279 13.728C35.9879 13.296 35.2599 13.08 34.4439 13.08C33.9479 13.08 33.4199 13.208 32.8599 13.464C32.3159 13.72 31.8359 14.064 31.4199 14.496C31.0199 14.912 30.7639 15.376 30.6519 15.888V19.464C31.0039 20.296 31.5399 21 32.2599 21.576C32.9959 22.136 33.7879 22.416 34.6359 22.416ZM43.5411 6.48H45.6531V20.76C45.6531 21.448 45.7491 21.872 45.9411 22.032C46.1331 22.192 46.3651 22.272 46.6371 22.272C46.9731 22.272 47.2931 22.24 47.5971 22.176C47.9011 22.096 48.1571 22.016 48.3651 21.936L48.7011 23.664C48.3491 23.808 47.9331 23.928 47.4531 24.024C46.9731 24.12 46.5491 24.168 46.1811 24.168C45.3651 24.168 44.7171 23.936 44.2371 23.472C43.7731 23.008 43.5411 22.36 43.5411 21.528V6.48ZM55.8323 24.24C54.5843 24.24 53.4803 23.944 52.5203 23.352C51.5763 22.744 50.8403 21.952 50.3123 20.976C49.7843 19.984 49.5203 18.912 49.5203 17.76C49.5203 16.592 49.7843 15.52 50.3123 14.544C50.8563 13.552 51.6003 12.76 52.5443 12.168C53.5043 11.56 54.6003 11.256 55.8323 11.256C57.0803 11.256 58.1763 11.56 59.1203 12.168C60.0803 12.76 60.8243 13.552 61.3523 14.544C61.8963 15.52 62.1683 16.592 62.1683 17.76C62.1683 18.912 61.8963 19.984 61.3523 20.976C60.8243 21.952 60.0883 22.744 59.1443 23.352C58.2003 23.944 57.0963 24.24 55.8323 24.24ZM51.6803 17.784C51.6803 18.648 51.8643 19.432 52.2323 20.136C52.6163 20.84 53.1203 21.4 53.7443 21.816C54.3683 22.216 55.0643 22.416 55.8323 22.416C56.6003 22.416 57.2963 22.208 57.9203 21.792C58.5603 21.376 59.0643 20.816 59.4323 20.112C59.8163 19.392 60.0083 18.6 60.0083 17.736C60.0083 16.872 59.8163 16.088 59.4323 15.384C59.0643 14.68 58.5603 14.12 57.9203 13.704C57.2963 13.288 56.6003 13.08 55.8323 13.08C55.0643 13.08 54.3683 13.296 53.7443 13.728C53.1203 14.144 52.6163 14.704 52.2323 15.408C51.8643 16.112 51.6803 16.904 51.6803 17.784ZM71.3514 13.32C70.2954 13.336 69.3594 13.608 68.5434 14.136C67.7434 14.648 67.1754 15.36 66.8394 16.272V24H64.7274V11.472H66.6954V14.376C67.1274 13.512 67.6954 12.816 68.3994 12.288C69.1194 11.744 69.8714 11.44 70.6554 11.376C70.8154 11.376 70.9514 11.376 71.0634 11.376C71.1754 11.376 71.2714 11.384 71.3514 11.4V13.32ZM78.7089 24.24C77.4609 24.24 76.3569 23.944 75.3969 23.352C74.4369 22.76 73.6849 21.968 73.1409 20.976C72.5969 19.984 72.3249 18.904 72.3249 17.736C72.3249 16.552 72.5969 15.472 73.1409 14.496C73.6849 13.52 74.4369 12.736 75.3969 12.144C76.3729 11.552 77.4849 11.256 78.7329 11.256C79.9969 11.256 81.0929 11.56 82.0209 12.168C82.9649 12.76 83.6929 13.544 84.2049 14.52C84.7329 15.48 84.9969 16.52 84.9969 17.64C84.9969 17.992 84.9809 18.264 84.9489 18.456H74.5569C74.6209 19.272 74.8449 20 75.2289 20.64C75.6289 21.264 76.1409 21.76 76.7649 22.128C77.3889 22.48 78.0609 22.656 78.7809 22.656C79.5489 22.656 80.2689 22.464 80.9409 22.08C81.6289 21.696 82.1009 21.192 82.3569 20.568L84.1809 21.072C83.7809 22 83.0849 22.76 82.0929 23.352C81.1009 23.944 79.9729 24.24 78.7089 24.24ZM74.4849 16.992H83.0289C82.9649 16.176 82.7329 15.456 82.3329 14.832C81.9329 14.208 81.4209 13.72 80.7969 13.368C80.1729 13.016 79.4849 12.84 78.7329 12.84C77.9969 12.84 77.3169 13.016 76.6929 13.368C76.0689 13.72 75.5569 14.208 75.1569 14.832C74.7729 15.456 74.5489 16.176 74.4849 16.992Z" fill="black"/>
<path d="M12 51L43.5 82.5L75 51" stroke="#6E9554" stroke-width="5" stroke-linecap="round" stroke-linejoin="round"/>
</svg>
